<?xml version="1.0" encoding="utf-8"?>
<svg version="1.1" xmlns:xlink="http://www.w3.org/1999/xlink" width="81px" height="38px" xmlns="http://www.w3.org/2000/svg">
  <g transform="matrix(1 0 0 1 -787 -242 )">
    <path d="M 788 247  A 4 4 0 0 1 792 243 L 863 243  A 4 4 0 0 1 867 247 L 867 275  A 4 4 0 0 1 863 279 L 792 279  A 4 4 0 0 1 788 275 L 788 247  Z " fill-rule="nonzero" fill="#ff560d" stroke="none" />
    <path d="M 787.5 247  A 4.5 4.5 0 0 1 792 242.5 L 863 242.5  A 4.5 4.5 0 0 1 867.5 247 L 867.5 275  A 4.5 4.5 0 0 1 863 279.5 L 792 279.5  A 4.5 4.5 0 0 1 787.5 275 L 787.5 247  Z " stroke-width="1" stroke-dasharray="3,1" stroke="#d9d6d6" fill="none" stroke-dashoffset="0.5" />
  </g>
</svg>