<?xml version="1.0" encoding="utf-8"?>
<svg version="1.1" xmlns:xlink="http://www.w3.org/1999/xlink" width="73px" height="35px" xmlns="http://www.w3.org/2000/svg">
  <g transform="matrix(1 0 0 1 -849 -337 )">
    <path d="M 850 342  A 4 4 0 0 1 854 338 L 917 338  A 4 4 0 0 1 921 342 L 921 367  A 4 4 0 0 1 917 371 L 854 371  A 4 4 0 0 1 850 367 L 850 342  Z " fill-rule="nonzero" fill="#ffffff" stroke="none" fill-opacity="0" />
    <path d="M 849.5 342  A 4.5 4.5 0 0 1 854 337.5 L 917 337.5  A 4.5 4.5 0 0 1 921.5 342 L 921.5 367  A 4.5 4.5 0 0 1 917 371.5 L 854 371.5  A 4.5 4.5 0 0 1 849.5 367 L 849.5 342  Z " stroke-width="1" stroke-dasharray="3,1" stroke="#ff560d" fill="none" stroke-dashoffset="0.5" />
  </g>
</svg>