<?xml version="1.0" encoding="utf-8"?>
<svg version="1.1" xmlns:xlink="http://www.w3.org/1999/xlink" width="407px" height="85px" xmlns="http://www.w3.org/2000/svg">
  <defs>
    <filter x="774px" y="225px" width="407px" height="85px" filterUnits="userSpaceOnUse" id="filter5">
      <feOffset dx="8" dy="8" in="SourceAlpha" result="shadowOffsetInner" />
      <feGaussianBlur stdDeviation="2.5" in="shadowOffsetInner" result="shadowGaussian" />
      <feComposite in2="shadowGaussian" operator="atop" in="SourceAlpha" result="shadowComposite" />
      <feColorMatrix type="matrix" values="0 0 0 0 0.815686274509804  0 0 0 0 0.803921568627451  0 0 0 0 0.796078431372549  0 0 0 0.905882352941176 0  " in="shadowComposite" />
    </filter>
    <g id="widget6">
      <path d="M 775 230  A 4 4 0 0 1 779 226 L 1163 226  A 4 4 0 0 1 1167 230 L 1167 292  A 4 4 0 0 1 1163 296 L 779 296  A 4 4 0 0 1 775 292 L 775 230  Z " fill-rule="nonzero" fill="#f6f6f6" stroke="none" />
      <path d="M 774.5 230  A 4.5 4.5 0 0 1 779 225.5 L 1163 225.5  A 4.5 4.5 0 0 1 1167.5 230 L 1167.5 292  A 4.5 4.5 0 0 1 1163 296.5 L 779 296.5  A 4.5 4.5 0 0 1 774.5 292 L 774.5 230  Z " stroke-width="1" stroke-dasharray="3,1" stroke="#d2cecd" fill="none" stroke-dashoffset="0.5" />
    </g>
  </defs>
  <g transform="matrix(1 0 0 1 -774 -225 )">
    <use xlink:href="#widget6" filter="url(#filter5)" />
    <use xlink:href="#widget6" />
  </g>
</svg>