<?xml version="1.0" encoding="utf-8"?>
<svg version="1.1" xmlns:xlink="http://www.w3.org/1999/xlink" width="407px" height="340px" xmlns="http://www.w3.org/2000/svg">
  <defs>
    <filter x="774px" y="316px" width="407px" height="340px" filterUnits="userSpaceOnUse" id="filter7">
      <feOffset dx="8" dy="8" in="SourceAlpha" result="shadowOffsetInner" />
      <feGaussianBlur stdDeviation="2.5" in="shadowOffsetInner" result="shadowGaussian" />
      <feComposite in2="shadowGaussian" operator="atop" in="SourceAlpha" result="shadowComposite" />
      <feColorMatrix type="matrix" values="0 0 0 0 0.815686274509804  0 0 0 0 0.803921568627451  0 0 0 0 0.796078431372549  0 0 0 1 0  " in="shadowComposite" />
    </filter>
    <g id="widget8">
      <path d="M 775 321  A 4 4 0 0 1 779 317 L 1163 317  A 4 4 0 0 1 1167 321 L 1167 638  A 4 4 0 0 1 1163 642 L 779 642  A 4 4 0 0 1 775 638 L 775 321  Z " fill-rule="nonzero" fill="#ffffff" stroke="none" />
      <path d="M 774.5 321  A 4.5 4.5 0 0 1 779 316.5 L 1163 316.5  A 4.5 4.5 0 0 1 1167.5 321 L 1167.5 638  A 4.5 4.5 0 0 1 1163 642.5 L 779 642.5  A 4.5 4.5 0 0 1 774.5 638 L 774.5 321  Z " stroke-width="1" stroke-dasharray="3,1" stroke="#d2cecd" fill="none" stroke-dashoffset="0.5" />
    </g>
  </defs>
  <g transform="matrix(1 0 0 1 -774 -316 )">
    <use xlink:href="#widget8" filter="url(#filter7)" />
    <use xlink:href="#widget8" />
  </g>
</svg>